<svg width="24" height="20" viewBox="0 0 24 20" fill="none" xmlns="http://www.w3.org/2000/svg">
<path d="M3.914 11.0002L22.5 11.0002C22.7652 11.0002 23.0196 10.8948 23.2071 10.7073C23.3946 10.5198 23.5 10.2654 23.5 10.0002C23.5 9.73499 23.3946 9.48063 23.2071 9.29309C23.0196 9.10556 22.7652 9.0002 22.5 9.0002L3.914 9.0002L11.208 1.7082C11.3958 1.52043 11.5013 1.26575 11.5013 1.0002C11.5013 0.734652 11.3958 0.479975 11.208 0.292202C11.0202 0.104429 10.7656 -0.00106049 10.5 -0.00106049C10.2344 -0.00106049 9.97977 0.104429 9.792 0.292202L0.792 9.2922C0.698874 9.38509 0.624989 9.49545 0.574575 9.61694C0.524162 9.73843 0.498213 9.86867 0.498213 10.0002C0.498213 10.1317 0.524162 10.262 0.574575 10.3835C0.624989 10.505 0.698874 10.6153 0.792 10.7082L9.792 19.7082C9.97977 19.896 10.2344 20.0015 10.5 20.0015C10.7656 20.0015 11.0202 19.896 11.208 19.7082C11.3958 19.5204 11.5013 19.2658 11.5013 19.0002C11.5013 18.7347 11.3958 18.48 11.208 18.2922L3.914 11.0002Z" fill="#0094FF"/>
</svg>
